<svg width="800" height="600" viewBox="0 0 800 600" fill="none" xmlns="http://www.w3.org/2000/svg">
  <!-- Background -->
  <rect width="800" height="600" fill="#f0f9ff"/>
  
  <!-- Interface Frame -->
  <rect x="100" y="50" width="600" height="500" rx="16" fill="white" stroke="#e2e8f0" stroke-width="2"/>
  
  <!-- Header -->
  <rect x="100" y="50" width="600" height="60" rx="16" fill="#2563eb"/>
  <text x="140" y="88" font-family="Inter" font-size="18" font-weight="600" fill="white">Perspectiv AI Meeting Assistant</text>
  
  <!-- Main Content -->
  <g transform="translate(120, 140)">
    <!-- Context Building Section -->
    <rect x="0" y="0" width="260" height="180" rx="8" fill="white" stroke="#e2e8f0" stroke-width="2"/>
    <text x="20" y="30" font-family="Inter" font-size="16" font-weight="600" fill="#1e293b">Context Building</text>
    <path d="M20 50h220" stroke="#e2e8f0"/>
    <circle cx="40" cy="90" r="20" fill="#2563eb" fill-opacity="0.1"/>
    <path d="M32 90l5 5l10-10" stroke="#2563eb" stroke-width="2"/>
    <text x="70" y="95" font-family="Inter" font-size="14" fill="#64748b">API refactor analysis</text>
    <circle cx="40" cy="140" r="20" fill="#2563eb" fill-opacity="0.1"/>
    <path d="M32 140l5 5l10-10" stroke="#2563eb" stroke-width="2"/>
    <text x="70" y="145" font-family="Inter" font-size="14" fill="#64748b">Launch risk assessment</text>
    
    <!-- Standup Copiloting Section -->
    <rect x="300" y="0" width="260" height="180" rx="8" fill="white" stroke="#e2e8f0" stroke-width="2"/>
    <text x="320" y="30" font-family="Inter" font-size="16" font-weight="600" fill="#1e293b">Standup Copiloting</text>
    <path d="M320 50h220" stroke="#e2e8f0"/>
    <circle cx="340" cy="90" r="20" fill="#2563eb" fill-opacity="0.1"/>
    <path d="M332 90l5 5l10-10" stroke="#2563eb" stroke-width="2"/>
    <text x="370" y="95" font-family="Inter" font-size="14" fill="#64748b">Progress tracking</text>
    <circle cx="340" cy="140" r="20" fill="#2563eb" fill-opacity="0.1"/>
    <path d="M332 140l5 5l10-10" stroke="#2563eb" stroke-width="2"/>
    <text x="370" y="145" font-family="Inter" font-size="14" fill="#64748b">Blockers identified</text>
    
    <!-- Skill Matching Section -->
    <rect x="0" y="220" width="560" height="160" rx="8" fill="white" stroke="#e2e8f0" stroke-width="2"/>
    <text x="20" y="250" font-family="Inter" font-size="16" font-weight="600" fill="#1e293b">Skill Matching</text>
    <path d="M20 270h520" stroke="#e2e8f0"/>
    
    <!-- Skill Match Visualization -->
    <g transform="translate(20, 290)">
      <rect x="0" y="0" width="120" height="70" rx="4" fill="#2563eb" fill-opacity="0.1"/>
      <text x="10" y="30" font-family="Inter" font-size="14" font-weight="500" fill="#2563eb">Backend</text>
      <text x="10" y="50" font-family="Inter" font-size="12" fill="#64748b">Migration Task</text>
      
      <path d="M130 35h40" stroke="#2563eb" stroke-width="2" stroke-dasharray="4 4"/>
      
      <rect x="180" y="0" width="120" height="70" rx="4" fill="#2563eb" fill-opacity="0.1"/>
      <text x="190" y="30" font-family="Inter" font-size="14" font-weight="500" fill="#2563eb">John D.</text>
      <text x="190" y="50" font-family="Inter" font-size="12" fill="#64748b">95% match</text>
    </g>
  </g>
</svg> 