<svg width="32" height="32" viewBox="0 0 32 32" fill="none" xmlns="http://www.w3.org/2000/svg">
  <path d="M16 2C8.268 2 2 8.268 2 16C2 23.732 8.268 30 16 30C23.732 30 30 23.732 30 16C30 8.268 23.732 2 16 2Z" stroke="#2563eb" stroke-width="2"/>
  <path d="M16 8C11.582 8 8 11.582 8 16C8 20.418 11.582 24 16 24" stroke="#2563eb" stroke-width="2" stroke-linecap="round"/>
  <path d="M16 20C18.2091 20 20 18.2091 20 16C20 13.7909 18.2091 12 16 12" stroke="#2563eb" stroke-width="2" stroke-linecap="round"/>
  <circle cx="16" cy="16" r="2" fill="#2563eb"/>
  <path d="M22 10L26 14M26 10L22 14" stroke="#2563eb" stroke-width="2" stroke-linecap="round"/>
</svg> 